<mxfile host="65bd71144e">
    <diagram id="EV65yb_jjW9IthwbfgZv" name="Page-1">
        <mxGraphModel dx="1679" dy="1142" grid="1" gridSize="10" guides="1" tooltips="1" connect="1" arrows="1" fold="1" page="1" pageScale="1" pageWidth="827" pageHeight="1169" math="0" shadow="0">
            <root>
                <mxCell id="0"/>
                <mxCell id="1" parent="0"/>
                <mxCell id="HSNwQ3O_0nQfxcZKa0X5-3" style="edgeStyle=orthogonalEdgeStyle;rounded=1;orthogonalLoop=1;jettySize=auto;html=1;exitX=0.25;exitY=0;exitDx=0;exitDy=0;fontSize=13;shape=flexArrow;" parent="1" source="1uaCHu3Pwth4PD7MlHN_-7" target="B6evqfIJlXMsKJtfPlcZ-13" edge="1">
                    <mxGeometry relative="1" as="geometry"/>
                </mxCell>
                <mxCell id="HSNwQ3O_0nQfxcZKa0X5-4" style="edgeStyle=orthogonalEdgeStyle;rounded=1;orthogonalLoop=1;jettySize=auto;html=1;exitX=0.75;exitY=0;exitDx=0;exitDy=0;entryX=0.5;entryY=1;entryDx=0;entryDy=0;fontSize=13;shape=flexArrow;" parent="1" source="1uaCHu3Pwth4PD7MlHN_-7" target="HSNwQ3O_0nQfxcZKa0X5-1" edge="1">
                    <mxGeometry relative="1" as="geometry"/>
                </mxCell>
                <mxCell id="1uaCHu3Pwth4PD7MlHN_-7" value="" style="rounded=1;whiteSpace=wrap;html=1;" parent="1" vertex="1">
                    <mxGeometry x="121" y="553" width="550" height="320" as="geometry"/>
                </mxCell>
                <mxCell id="azg0pfPyC3QKJG3fZvSD-19" style="edgeStyle=orthogonalEdgeStyle;rounded=1;orthogonalLoop=1;jettySize=auto;html=1;exitX=0.5;exitY=0;exitDx=0;exitDy=0;entryX=0.5;entryY=1;entryDx=0;entryDy=0;" parent="1" source="1uaCHu3Pwth4PD7MlHN_-1" target="azg0pfPyC3QKJG3fZvSD-1" edge="1">
                    <mxGeometry relative="1" as="geometry"/>
                </mxCell>
                <mxCell id="1uaCHu3Pwth4PD7MlHN_-1" value="&lt;b&gt;&lt;font style=&quot;font-size: 13px&quot;&gt;BERT&lt;br&gt;(Embeddings + Encoder + Pooler)&lt;br&gt;&lt;/font&gt;&lt;/b&gt;" style="rounded=1;whiteSpace=wrap;html=1;" parent="1" vertex="1">
                    <mxGeometry x="170" y="783" width="446" height="60" as="geometry"/>
                </mxCell>
                <mxCell id="1uaCHu3Pwth4PD7MlHN_-12" value="&lt;b&gt;&lt;font style=&quot;font-size: 19px&quot;&gt;SHARED&lt;/font&gt;&lt;/b&gt;" style="text;html=1;strokeColor=none;fillColor=none;align=center;verticalAlign=middle;whiteSpace=wrap;rounded=1;" parent="1" vertex="1">
                    <mxGeometry x="132" y="563" width="100" height="40" as="geometry"/>
                </mxCell>
                <mxCell id="HSNwQ3O_0nQfxcZKa0X5-12" style="edgeStyle=orthogonalEdgeStyle;shape=flexArrow;rounded=1;orthogonalLoop=1;jettySize=auto;html=1;exitX=0.5;exitY=0;exitDx=0;exitDy=0;entryX=0.25;entryY=1;entryDx=0;entryDy=0;fontSize=19;" parent="1" source="1uaCHu3Pwth4PD7MlHN_-13" target="B6evqfIJlXMsKJtfPlcZ-8" edge="1">
                    <mxGeometry relative="1" as="geometry"/>
                </mxCell>
                <mxCell id="1uaCHu3Pwth4PD7MlHN_-13" value="&lt;b&gt;STATE&lt;/b&gt;" style="text;html=1;strokeColor=none;fillColor=none;align=center;verticalAlign=middle;whiteSpace=wrap;rounded=1;fontSize=19;" parent="1" vertex="1">
                    <mxGeometry x="222" y="1053" width="73" height="30" as="geometry"/>
                </mxCell>
                <mxCell id="HSNwQ3O_0nQfxcZKa0X5-13" style="edgeStyle=orthogonalEdgeStyle;shape=flexArrow;rounded=1;orthogonalLoop=1;jettySize=auto;html=1;exitX=0.5;exitY=0;exitDx=0;exitDy=0;entryX=0.75;entryY=1;entryDx=0;entryDy=0;fontSize=19;" parent="1" source="1uaCHu3Pwth4PD7MlHN_-14" target="B6evqfIJlXMsKJtfPlcZ-8" edge="1">
                    <mxGeometry relative="1" as="geometry"/>
                </mxCell>
                <mxCell id="1uaCHu3Pwth4PD7MlHN_-14" value="&lt;b&gt;ACTION&lt;/b&gt;" style="text;html=1;strokeColor=none;fillColor=none;align=center;verticalAlign=middle;whiteSpace=wrap;rounded=1;fontSize=19;" parent="1" vertex="1">
                    <mxGeometry x="493.5" y="1053" width="79" height="30" as="geometry"/>
                </mxCell>
                <mxCell id="B6evqfIJlXMsKJtfPlcZ-8" value="" style="rounded=1;whiteSpace=wrap;html=1;fontSize=13;" parent="1" vertex="1">
                    <mxGeometry x="120" y="943" width="551" height="60" as="geometry"/>
                </mxCell>
                <mxCell id="B6evqfIJlXMsKJtfPlcZ-10" value="" style="shape=flexArrow;endArrow=classic;html=1;rounded=1;fontSize=13;exitX=0.75;exitY=0;exitDx=0;exitDy=0;entryX=0.75;entryY=1;entryDx=0;entryDy=0;" parent="1" source="B6evqfIJlXMsKJtfPlcZ-8" target="1uaCHu3Pwth4PD7MlHN_-7" edge="1">
                    <mxGeometry width="50" height="50" relative="1" as="geometry">
                        <mxPoint x="372" y="923" as="sourcePoint"/>
                        <mxPoint x="422" y="873" as="targetPoint"/>
                    </mxGeometry>
                </mxCell>
                <mxCell id="B6evqfIJlXMsKJtfPlcZ-11" value="" style="shape=flexArrow;endArrow=classic;html=1;rounded=1;fontSize=13;exitX=0.25;exitY=0;exitDx=0;exitDy=0;entryX=0.25;entryY=1;entryDx=0;entryDy=0;" parent="1" source="B6evqfIJlXMsKJtfPlcZ-8" target="1uaCHu3Pwth4PD7MlHN_-7" edge="1">
                    <mxGeometry width="50" height="50" relative="1" as="geometry">
                        <mxPoint x="372" y="923" as="sourcePoint"/>
                        <mxPoint x="292" y="903" as="targetPoint"/>
                    </mxGeometry>
                </mxCell>
                <mxCell id="B6evqfIJlXMsKJtfPlcZ-12" value="&lt;b&gt;&lt;font style=&quot;font-size: 19px&quot;&gt;TOKENIZER&lt;/font&gt;&lt;/b&gt;" style="text;html=1;strokeColor=none;fillColor=none;align=center;verticalAlign=middle;whiteSpace=wrap;rounded=1;" parent="1" vertex="1">
                    <mxGeometry x="319" y="953" width="154" height="40" as="geometry"/>
                </mxCell>
                <mxCell id="HSNwQ3O_0nQfxcZKa0X5-7" style="edgeStyle=orthogonalEdgeStyle;shape=flexArrow;rounded=1;orthogonalLoop=1;jettySize=auto;html=1;exitX=0.5;exitY=0;exitDx=0;exitDy=0;entryX=0.25;entryY=1;entryDx=0;entryDy=0;fontSize=13;" parent="1" source="B6evqfIJlXMsKJtfPlcZ-13" target="B6evqfIJlXMsKJtfPlcZ-14" edge="1">
                    <mxGeometry relative="1" as="geometry"/>
                </mxCell>
                <mxCell id="B6evqfIJlXMsKJtfPlcZ-13" value="&lt;b&gt;&lt;br&gt;&lt;/b&gt;" style="rounded=1;whiteSpace=wrap;html=1;fontSize=13;" parent="1" vertex="1">
                    <mxGeometry x="145.5" y="314" width="226" height="170" as="geometry"/>
                </mxCell>
                <mxCell id="HSNwQ3O_0nQfxcZKa0X5-8" style="edgeStyle=orthogonalEdgeStyle;shape=flexArrow;rounded=1;orthogonalLoop=1;jettySize=auto;html=1;exitX=0.5;exitY=0;exitDx=0;exitDy=0;fontSize=13;" parent="1" source="B6evqfIJlXMsKJtfPlcZ-14" edge="1">
                    <mxGeometry relative="1" as="geometry">
                        <mxPoint x="396" y="90" as="targetPoint"/>
                    </mxGeometry>
                </mxCell>
                <mxCell id="B6evqfIJlXMsKJtfPlcZ-14" value="" style="rounded=1;whiteSpace=wrap;html=1;fontSize=13;" parent="1" vertex="1">
                    <mxGeometry x="199" y="150" width="393" height="90" as="geometry"/>
                </mxCell>
                <mxCell id="azg0pfPyC3QKJG3fZvSD-1" value="" style="rounded=1;whiteSpace=wrap;html=1;" parent="1" vertex="1">
                    <mxGeometry x="170" y="600" width="450" height="163" as="geometry"/>
                </mxCell>
                <mxCell id="HSNwQ3O_0nQfxcZKa0X5-6" style="edgeStyle=orthogonalEdgeStyle;shape=flexArrow;rounded=1;orthogonalLoop=1;jettySize=auto;html=1;exitX=0.5;exitY=0;exitDx=0;exitDy=0;entryX=0.75;entryY=1;entryDx=0;entryDy=0;fontSize=13;" parent="1" source="HSNwQ3O_0nQfxcZKa0X5-1" target="B6evqfIJlXMsKJtfPlcZ-14" edge="1">
                    <mxGeometry relative="1" as="geometry"/>
                </mxCell>
                <mxCell id="HSNwQ3O_0nQfxcZKa0X5-1" value="&lt;b&gt;&lt;br&gt;&lt;/b&gt;" style="rounded=1;whiteSpace=wrap;html=1;fontSize=13;" parent="1" vertex="1">
                    <mxGeometry x="418" y="314" width="230" height="170" as="geometry"/>
                </mxCell>
                <mxCell id="azg0pfPyC3QKJG3fZvSD-17" style="edgeStyle=orthogonalEdgeStyle;rounded=1;orthogonalLoop=1;jettySize=auto;html=1;exitX=0.5;exitY=0;exitDx=0;exitDy=0;entryX=0.5;entryY=1;entryDx=0;entryDy=0;" parent="1" source="B6evqfIJlXMsKJtfPlcZ-6" target="azg0pfPyC3QKJG3fZvSD-3" edge="1">
                    <mxGeometry relative="1" as="geometry"/>
                </mxCell>
                <mxCell id="B6evqfIJlXMsKJtfPlcZ-6" value="&lt;b&gt;&lt;font style=&quot;font-size: 13px&quot;&gt;Linear&lt;/font&gt;&lt;/b&gt;" style="rounded=1;whiteSpace=wrap;html=1;" parent="1" vertex="1">
                    <mxGeometry x="291" y="717.5" width="210" height="30" as="geometry"/>
                </mxCell>
                <mxCell id="azg0pfPyC3QKJG3fZvSD-18" style="edgeStyle=orthogonalEdgeStyle;rounded=1;orthogonalLoop=1;jettySize=auto;html=1;exitX=0.5;exitY=0;exitDx=0;exitDy=0;entryX=0.5;entryY=1;entryDx=0;entryDy=0;" parent="1" source="azg0pfPyC3QKJG3fZvSD-3" target="azg0pfPyC3QKJG3fZvSD-4" edge="1">
                    <mxGeometry relative="1" as="geometry"/>
                </mxCell>
                <mxCell id="azg0pfPyC3QKJG3fZvSD-3" value="&lt;b&gt;&lt;font style=&quot;font-size: 13px&quot;&gt;ReLU&lt;/font&gt;&lt;/b&gt;" style="rounded=1;whiteSpace=wrap;html=1;" parent="1" vertex="1">
                    <mxGeometry x="291" y="675" width="210" height="30" as="geometry"/>
                </mxCell>
                <mxCell id="azg0pfPyC3QKJG3fZvSD-4" value="&lt;b&gt;&lt;font style=&quot;font-size: 13px&quot;&gt;Linear&lt;/font&gt;&lt;/b&gt;" style="rounded=1;whiteSpace=wrap;html=1;" parent="1" vertex="1">
                    <mxGeometry x="291" y="633" width="210" height="30" as="geometry"/>
                </mxCell>
                <mxCell id="azg0pfPyC3QKJG3fZvSD-6" value="&lt;b style=&quot;font-size: 13px&quot;&gt;&lt;font style=&quot;font-size: 19px&quot;&gt;ACTION&lt;/font&gt;&lt;/b&gt;" style="text;html=1;strokeColor=none;fillColor=none;align=center;verticalAlign=middle;whiteSpace=wrap;rounded=1;" parent="1" vertex="1">
                    <mxGeometry x="410" y="324" width="150" height="30" as="geometry"/>
                </mxCell>
                <mxCell id="azg0pfPyC3QKJG3fZvSD-20" style="edgeStyle=orthogonalEdgeStyle;rounded=1;orthogonalLoop=1;jettySize=auto;html=1;exitX=0.5;exitY=0;exitDx=0;exitDy=0;entryX=0.5;entryY=1;entryDx=0;entryDy=0;" parent="1" source="azg0pfPyC3QKJG3fZvSD-7" target="azg0pfPyC3QKJG3fZvSD-8" edge="1">
                    <mxGeometry relative="1" as="geometry"/>
                </mxCell>
                <mxCell id="azg0pfPyC3QKJG3fZvSD-7" value="&lt;b&gt;&lt;font style=&quot;font-size: 13px&quot;&gt;Linear&lt;/font&gt;&lt;/b&gt;" style="rounded=1;whiteSpace=wrap;html=1;" parent="1" vertex="1">
                    <mxGeometry x="428" y="444.5" width="210" height="30" as="geometry"/>
                </mxCell>
                <mxCell id="azg0pfPyC3QKJG3fZvSD-21" style="edgeStyle=orthogonalEdgeStyle;rounded=1;orthogonalLoop=1;jettySize=auto;html=1;exitX=0.5;exitY=0;exitDx=0;exitDy=0;entryX=0.5;entryY=1;entryDx=0;entryDy=0;" parent="1" source="azg0pfPyC3QKJG3fZvSD-8" target="azg0pfPyC3QKJG3fZvSD-9" edge="1">
                    <mxGeometry relative="1" as="geometry"/>
                </mxCell>
                <mxCell id="azg0pfPyC3QKJG3fZvSD-8" value="&lt;b&gt;&lt;font style=&quot;font-size: 13px&quot;&gt;ReLU&lt;/font&gt;&lt;/b&gt;" style="rounded=1;whiteSpace=wrap;html=1;" parent="1" vertex="1">
                    <mxGeometry x="428" y="401" width="210" height="30" as="geometry"/>
                </mxCell>
                <mxCell id="azg0pfPyC3QKJG3fZvSD-9" value="&lt;b&gt;&lt;font style=&quot;font-size: 13px&quot;&gt;Linear&lt;/font&gt;&lt;/b&gt;" style="rounded=1;whiteSpace=wrap;html=1;" parent="1" vertex="1">
                    <mxGeometry x="428" y="358" width="210" height="30" as="geometry"/>
                </mxCell>
                <mxCell id="azg0pfPyC3QKJG3fZvSD-10" value="&lt;b style=&quot;font-size: 13px&quot;&gt;&lt;font style=&quot;font-size: 19px&quot;&gt;STATE&lt;/font&gt;&lt;/b&gt;" style="text;html=1;strokeColor=none;fillColor=none;align=center;verticalAlign=middle;whiteSpace=wrap;rounded=1;" parent="1" vertex="1">
                    <mxGeometry x="160" y="324" width="60" height="30" as="geometry"/>
                </mxCell>
                <mxCell id="azg0pfPyC3QKJG3fZvSD-23" style="edgeStyle=orthogonalEdgeStyle;rounded=1;orthogonalLoop=1;jettySize=auto;html=1;exitX=0.5;exitY=0;exitDx=0;exitDy=0;" parent="1" source="azg0pfPyC3QKJG3fZvSD-11" target="azg0pfPyC3QKJG3fZvSD-12" edge="1">
                    <mxGeometry relative="1" as="geometry"/>
                </mxCell>
                <mxCell id="azg0pfPyC3QKJG3fZvSD-11" value="&lt;b&gt;&lt;font style=&quot;font-size: 13px&quot;&gt;Linear&lt;/font&gt;&lt;/b&gt;" style="rounded=1;whiteSpace=wrap;html=1;" parent="1" vertex="1">
                    <mxGeometry x="154" y="443.25" width="210" height="30" as="geometry"/>
                </mxCell>
                <mxCell id="azg0pfPyC3QKJG3fZvSD-22" style="edgeStyle=orthogonalEdgeStyle;rounded=1;orthogonalLoop=1;jettySize=auto;html=1;exitX=0.5;exitY=0;exitDx=0;exitDy=0;entryX=0.5;entryY=1;entryDx=0;entryDy=0;" parent="1" source="azg0pfPyC3QKJG3fZvSD-12" target="azg0pfPyC3QKJG3fZvSD-13" edge="1">
                    <mxGeometry relative="1" as="geometry"/>
                </mxCell>
                <mxCell id="azg0pfPyC3QKJG3fZvSD-12" value="&lt;b&gt;&lt;font style=&quot;font-size: 13px&quot;&gt;ReLU&lt;/font&gt;&lt;/b&gt;" style="rounded=1;whiteSpace=wrap;html=1;" parent="1" vertex="1">
                    <mxGeometry x="154" y="399.75" width="210" height="30" as="geometry"/>
                </mxCell>
                <mxCell id="azg0pfPyC3QKJG3fZvSD-13" value="&lt;b&gt;&lt;font style=&quot;font-size: 13px&quot;&gt;Linear&lt;/font&gt;&lt;/b&gt;" style="rounded=1;whiteSpace=wrap;html=1;" parent="1" vertex="1">
                    <mxGeometry x="154" y="356.75" width="210" height="30" as="geometry"/>
                </mxCell>
                <mxCell id="azg0pfPyC3QKJG3fZvSD-14" value="&lt;b style=&quot;font-size: 13px&quot;&gt;&lt;font style=&quot;font-size: 19px&quot;&gt;OUTPUT&lt;/font&gt;&lt;br&gt;&lt;/b&gt;" style="text;html=1;strokeColor=none;fillColor=none;align=center;verticalAlign=middle;whiteSpace=wrap;rounded=1;" parent="1" vertex="1">
                    <mxGeometry x="196" y="159" width="125" height="30" as="geometry"/>
                </mxCell>
                <mxCell id="azg0pfPyC3QKJG3fZvSD-15" value="&lt;b&gt;&lt;font style=&quot;font-size: 13px&quot;&gt;Linear&lt;/font&gt;&lt;/b&gt;" style="rounded=1;whiteSpace=wrap;html=1;" parent="1" vertex="1">
                    <mxGeometry x="283.5" y="189" width="210" height="30" as="geometry"/>
                </mxCell>
                <mxCell id="azg0pfPyC3QKJG3fZvSD-16" value="&lt;b&gt;&lt;font style=&quot;font-size: 13px&quot;&gt;Fully Connected&lt;br&gt;&lt;/font&gt;&lt;/b&gt;" style="text;html=1;strokeColor=none;fillColor=none;align=center;verticalAlign=middle;whiteSpace=wrap;rounded=1;" parent="1" vertex="1">
                    <mxGeometry x="175" y="603" width="120" height="30" as="geometry"/>
                </mxCell>
            </root>
        </mxGraphModel>
    </diagram>
</mxfile>